<?xml version="1.0" standalone="no"?>
<!DOCTYPE svg PUBLIC "-//W3C//DTD SVG 20010904//EN"
 "http://www.w3.org/TR/2001/REC-SVG-20010904/DTD/svg10.dtd">
<svg version="1.0" xmlns="http://www.w3.org/2000/svg"
 width="192.000000pt" height="192.000000pt" viewBox="0 0 192.000000 192.000000"
 preserveAspectRatio="xMidYMid meet">
<metadata>
Created by potrace 1.14, written by Peter Selinger 2001-2017
</metadata>
<g transform="translate(0.000000,192.000000) scale(0.100000,-0.100000)"
fill="#000000" stroke="none">
<path d="M936 1837 c-65 -35 -66 -37 -111 -202 -16 -60 -16 -69 -3 -79 11 -8
13 -18 7 -35 -8 -19 -12 -21 -24 -11 -8 7 -15 10 -15 6 0 -3 -23 -84 -51 -178
-27 -95 -52 -182 -55 -193 -7 -28 -10 -38 -17 -55 -3 -8 -18 -60 -32 -115 -32
-120 -55 -188 -65 -195 -4 -3 -28 -23 -54 -45 -52 -44 -52 -42 -16 -139 21
-59 21 -78 -2 -133 -6 -15 -12 -32 -14 -38 -1 -5 -30 -82 -62 -170 -76 -202
-84 -189 131 -194 l157 -3 39 31 c25 20 42 43 46 64 10 46 75 241 83 249 4 4
21 9 37 12 38 6 102 15 140 21 17 2 44 7 61 10 30 6 31 5 44 -52 8 -32 14 -62
16 -68 1 -5 7 -37 15 -70 7 -33 13 -62 14 -65 0 -3 7 -36 14 -75 8 -38 17 -75
22 -81 5 -6 32 -11 61 -12 29 0 73 -5 99 -10 25 -5 78 -10 118 -11 67 -2 74 0
97 24 13 14 24 30 24 35 0 5 -23 99 -51 207 -51 198 -61 245 -61 273 1 48 13
219 17 240 11 58 16 158 8 163 -5 3 -28 1 -52 -5 -34 -9 -45 -8 -56 3 -10 12
-64 214 -106 404 -6 28 -13 59 -15 70 -3 11 -7 31 -8 45 -2 14 -6 36 -9 50 -4
14 -9 47 -12 73 -3 26 -10 70 -15 96 -9 51 -6 91 11 123 15 28 -2 43 -51 44
-53 1 -184 12 -220 19 -16 3 -47 -8 -84 -28z m123 -909 c7 -32 10 -62 7 -67
-3 -5 -20 -11 -37 -13 -27 -4 -30 -2 -25 16 3 12 11 47 17 79 7 32 15 55 19
50 4 -4 12 -34 19 -65z"/>
</g>
</svg>
